<svg width="231" height="147" viewBox="0 0 231 147" fill="none" xmlns="http://www.w3.org/2000/svg">
<path d="M89.2678 45.1417C89.2678 42.8268 89.0068 40.6083 88.4847 38.4862C88.2237 36.3642 87.4407 34.5315 86.1356 32.9882C85.0915 31.252 83.3949 29.9016 81.0458 28.937C78.9576 27.7795 75.9559 27.2008 72.0407 27.2008C69.9525 27.2008 67.7339 27.4902 65.3847 28.0689C63.2966 28.4547 61.339 29.2264 59.5119 30.3839C58.7288 29.2264 58.2068 28.1654 57.9458 27.2008C57.9458 26.0433 57.9458 24.9823 57.9458 24.0177V21.4134C57.9458 15.2402 61.6 10.128 68.9085 6.07677C76.2169 2.02559 85.7441 0 97.4898 0C111.585 0 122.417 3.18307 129.986 9.54921C137.817 15.7224 141.732 24.8858 141.732 37.0394V92.0197V147H139.383C123.722 147 111.454 144.299 102.58 138.898C93.7051 133.303 89.2678 124.429 89.2678 112.276V45.1417ZM0 0H4.30678C17.8797 0 29.2339 2.70079 38.3695 8.10236C47.7661 13.5039 52.4644 22.0886 52.4644 33.8563V147H50.1152C44.1119 147 38.1085 146.421 32.1051 145.264C26.3627 144.106 21.0119 142.274 16.0525 139.766C11.3542 137.065 7.43898 133.689 4.30678 129.638C1.43559 125.394 0 120.185 0 114.012V0ZM178.536 45.1417C178.536 42.8268 178.275 40.6083 177.753 38.4862C177.492 36.3642 176.708 34.5315 175.403 32.9882C174.359 31.252 172.663 29.9016 170.314 28.937C168.225 27.7795 165.224 27.2008 161.308 27.2008C159.22 27.2008 157.002 27.4902 154.653 28.0689C152.564 28.4547 150.607 29.2264 148.78 30.3839C147.736 28.8405 147.214 27.1043 147.214 25.1752C147.214 18.4232 150.346 12.5394 156.61 7.52362C162.875 2.50787 172.271 0 184.8 0C199.678 0 211.032 3.18307 218.863 9.54921C226.954 15.7224 231 24.8858 231 37.0394V147H228.651C212.99 147 200.722 144.299 191.847 138.898C182.973 133.303 178.536 124.429 178.536 112.276V45.1417Z" fill="url(#paint0_linear_17_6)"/>
<defs>
<linearGradient id="paint0_linear_17_6" x1="31.4745" y1="14.5339" x2="100.274" y2="172.556" gradientUnits="userSpaceOnUse">
<stop offset="0.362525" stop-color="#2478FF"/>
<stop offset="1" stop-color="#0062FF"/>
</linearGradient>
</defs>
</svg>
