<svg width="40" height="40" viewBox="0 0 40 40" fill="none" xmlns="http://www.w3.org/2000/svg">
  <path fill-rule="evenodd" clip-rule="evenodd"
    d="M24.5372 11.514C24.821 11.0402 24.667 10.426 24.1932 10.1423C23.7194 9.85848 23.1052 10.0125 22.8214 10.4863L18.9501 16.9498C17.5843 16.6173 16.3262 17.0211 15.2883 17.7906C14.1907 18.6044 13.2995 19.8462 12.6281 21.1739C11.9511 22.5126 11.4609 24.0107 11.2046 25.4142C10.9523 26.7953 10.9074 28.1884 11.2178 29.2749C11.3405 29.7042 11.7328 30.0002 12.1793 30.0002H19.6771H19.6815H23.6793C24.114 30.0002 24.499 29.7193 24.6316 29.3053C24.7643 28.8914 24.6143 28.4391 24.2606 28.1864C23.6504 27.7506 23.2937 27.0988 23.0737 26.1999C22.8781 25.4011 22.8133 24.5166 22.7415 23.5376C22.7297 23.3771 22.7178 23.214 22.705 23.0484C22.6193 21.935 22.4963 20.689 22.0493 19.6157C21.765 18.9332 21.3494 18.3186 20.7525 17.8328L24.5372 11.514ZM20.154 28.0002H21.5947C21.3889 27.5721 21.2408 27.124 21.131 26.6754C20.8921 25.6995 20.8144 24.6243 20.7446 23.6583C20.7361 23.5406 20.7277 23.4244 20.7192 23.3103L14.7418 21.4711C14.6285 21.665 14.5187 21.8671 14.4129 22.0765C13.8256 23.2377 13.3951 24.5521 13.172 25.7736C13.0155 26.6301 12.9699 27.392 13.0185 28.0002H17.944C17.7798 27.5292 17.6793 27.0173 17.6793 26.5002C17.6793 25.9479 18.127 25.5002 18.6793 25.5002C19.2316 25.5002 19.6793 25.9479 19.6793 26.5002C19.6793 27.0494 19.9032 27.6179 20.154 28.0002ZM16.0337 19.7761L20.4383 21.1313C20.3753 20.8631 20.2985 20.6141 20.203 20.3846C19.9217 19.7093 19.486 19.2207 18.6704 18.9488C17.9221 18.6994 17.2073 18.8575 16.4795 19.3972C16.3291 19.5087 16.1803 19.6354 16.0337 19.7761ZM24 21.0002C24 20.4479 24.4477 20.0002 25 20.0002H27C27.5523 20.0002 28 20.4479 28 21.0002C28 21.5524 27.5523 22.0002 27 22.0002H25C24.4477 22.0002 24 21.5524 24 21.0002ZM26 24.0002C25.4477 24.0002 25 24.4479 25 25.0002C25 25.5524 25.4477 26.0002 26 26.0002H29C29.5523 26.0002 30 25.5524 30 25.0002C30 24.4479 29.5523 24.0002 29 24.0002H26Z"
    fill="currentColor"></path>
</svg>