<svg xmlns="http://www.w3.org/2000/svg" width="32" height="32" viewBox="0 0 32 32" fill="none">
  <path fill-rule="evenodd" clip-rule="evenodd"
    d="M21.8478 4.85752C22.3214 4.57337 22.475 3.95911 22.1908 3.48553C21.9067 3.01195 21.2924 2.85839 20.8188 3.14254L15.151 6.54327C14.3355 7.03252 13.6766 7.74415 13.2513 8.59469L14.1366 9.03734L13.2513 8.59469L12.8612 9.37494C12.514 10.0692 12.3333 10.8348 12.3333 11.611V12.3334H8.66666C5.90523 12.3334 3.66666 14.5719 3.66666 17.3334V19.3334C3.66666 19.8857 4.11437 20.3334 4.66666 20.3334C5.21894 20.3334 5.66666 19.8857 5.66666 19.3334V17.3334C5.66666 15.6765 7.0098 14.3334 8.66666 14.3334H18.9193L16.3733 16.8805L16.3733 16.8805C15.1263 18.128 15.1265 20.1502 16.3737 21.3975C17.4506 22.4743 19.1378 22.6412 20.4047 21.7963L23 20.0656V24.0001C23 25.6569 21.6568 27.0001 20 27.0001H12.6667C12.1144 27.0001 11.6667 27.4478 11.6667 28.0001C11.6667 28.5524 12.1144 29.0001 12.6667 29.0001H20C22.7614 29.0001 25 26.7615 25 24.0001V18.7319L26.4339 17.7757C27.5271 17.0467 28.3665 15.9957 28.8357 14.7684L30.2675 11.0238C30.4647 10.5079 30.2065 9.92984 29.6906 9.7326C29.1747 9.53536 28.5966 9.79365 28.3994 10.3095L26.9676 14.0541C26.6466 14.8938 26.0723 15.6129 25.3243 16.1117L23.4579 17.3564L23.451 17.3608L23.434 17.3723L19.2951 20.1324C18.8214 20.4483 18.1906 20.3859 17.7879 19.9833C17.3216 19.5169 17.3215 18.7608 17.7878 18.2944L20.7074 15.3736C20.8948 15.1861 21.0001 14.9318 21.0001 14.6667V12C21.0001 11.4477 20.5524 11 20.0001 11C19.4478 11 19.0001 11.4477 19.0001 12V12.3334H14.3333V11.611C14.3333 11.1452 14.4418 10.6859 14.65 10.2694L15.0402 9.4891C15.2953 8.97878 15.6907 8.5518 16.18 8.25825L21.8478 4.85752ZM4.33332 28C4.33332 27.4478 4.78104 27 5.33332 27H7.99999C8.55227 27 8.99999 27.4478 8.99999 28C8.99999 28.5523 8.55227 29 7.99999 29H5.33332C4.78104 29 4.33332 28.5523 4.33332 28ZM2.66666 23C2.11437 23 1.66666 23.4478 1.66666 24C1.66666 24.5523 2.11437 25 2.66666 25H7.99999C8.55227 25 8.99999 24.5523 8.99999 24C8.99999 23.4478 8.55227 23 7.99999 23H2.66666Z"
    fill="currentColor" />
</svg>