<svg xmlns="http://www.w3.org/2000/svg" width="32" height="32" viewBox="0 0 32 32" fill="none">
  <path fill-rule="evenodd" clip-rule="evenodd"
    d="M15.6667 5.33329C15.6667 4.41282 16.4129 3.66663 17.3333 3.66663H26.6667C27.5871 3.66663 28.3333 4.41282 28.3333 5.33329V14.6666C28.3333 15.5871 27.5871 16.3333 26.6667 16.3333H21.3333C20.7811 16.3333 20.3333 16.781 20.3333 17.3333C20.3333 17.8856 20.7811 18.3333 21.3333 18.3333H26.6667C28.6917 18.3333 30.3333 16.6917 30.3333 14.6666V5.33329C30.3333 3.30825 28.6917 1.66663 26.6667 1.66663H17.3333C15.3083 1.66663 13.6667 3.30825 13.6667 5.33329V12C13.6667 12.5522 14.1144 13 14.6667 13C15.219 13 15.6667 12.5522 15.6667 12V5.33329ZM9.37378 3.95952C8.98325 3.56899 8.35009 3.56899 7.95957 3.95952C7.56904 4.35004 7.56904 4.98321 7.95957 5.37373L8.25246 5.66663H6.66667C4.64163 5.66663 3.00001 7.30825 3.00001 9.33329V10.6666C3.00001 11.2189 3.44772 11.6666 4.00001 11.6666C4.55229 11.6666 5.00001 11.2189 5.00001 10.6666V9.33329C5.00001 8.41282 5.7462 7.66663 6.66667 7.66663H8.25246L7.95957 7.95952C7.56904 8.35004 7.56904 8.98321 7.95957 9.37373C8.35009 9.76426 8.98325 9.76426 9.37378 9.37373L11.3738 7.37373C11.4697 7.27786 11.542 7.16736 11.5908 7.04941C11.6397 6.9315 11.6667 6.80222 11.6667 6.66663C11.6667 6.53104 11.6397 6.40175 11.5908 6.28384C11.542 6.1659 11.4697 6.0554 11.3738 5.95952L9.37378 3.95952ZM28 20.3333C28.5523 20.3333 29 20.781 29 21.3333V22.6666C29 24.6917 27.3584 26.3333 25.3333 26.3333H23.7476L24.0404 26.6262C24.431 27.0167 24.431 27.6499 24.0404 28.0404C23.6499 28.4309 23.0168 28.4309 22.6262 28.0404L20.6262 26.0404C20.5304 25.9445 20.458 25.834 20.4092 25.7161C20.3603 25.5982 20.3333 25.4689 20.3333 25.3333C20.3333 25.316 20.3338 25.2989 20.3346 25.2818C20.3406 25.165 20.3665 25.0534 20.4092 24.9505C20.458 24.8326 20.5304 24.7221 20.6262 24.6262L22.6262 22.6262C23.0168 22.2357 23.6499 22.2357 24.0404 22.6262C24.431 23.0167 24.431 23.6499 24.0404 24.0404L23.7476 24.3333H25.3333C26.2538 24.3333 27 23.5871 27 22.6666V21.3333C27 20.781 27.4477 20.3333 28 20.3333ZM5.66667 15C3.45753 15 1.66667 16.7908 1.66667 19V20.6666V25C1.66667 27.2091 3.45753 29 5.66667 29H14.3333C16.5425 29 18.3333 27.2091 18.3333 25V20.6666V19C18.3333 16.7908 16.5425 15 14.3333 15H5.66667ZM3.66667 25V21.6666H16.3333V25C16.3333 26.1045 15.4379 27 14.3333 27H5.66667C4.5621 27 3.66667 26.1045 3.66667 25ZM3.66667 19.6666H16.3333V19C16.3333 17.8954 15.4379 17 14.3333 17H5.66667C4.5621 17 3.66667 17.8954 3.66667 19V19.6666ZM17.6667 7.99996C17.6667 7.44767 18.1144 6.99996 18.6667 6.99996H25.3333C25.8856 6.99996 26.3333 7.44767 26.3333 7.99996C26.3333 8.55224 25.8856 8.99996 25.3333 8.99996H18.6667C18.1144 8.99996 17.6667 8.55224 17.6667 7.99996ZM22.6667 11C22.1144 11 21.6667 11.4477 21.6667 12C21.6667 12.5522 22.1144 13 22.6667 13H25.3333C25.8856 13 26.3333 12.5522 26.3333 12C26.3333 11.4477 25.8856 11 25.3333 11H22.6667Z"
    fill="currentColor" />
</svg>