<svg width="18" height="19" viewBox="0 0 18 19" fill="none" xmlns="http://www.w3.org/2000/svg">
  <path fill-rule="evenodd" clip-rule="evenodd"
    d="M16.0784 4.46248C16.3013 5.05123 16.4177 5.67575 16.4268 6.30525C16.4732 7.0974 16.4734 7.35647 16.475 9.36158L16.4751 9.38958C16.4751 11.4211 16.4643 11.6748 16.4285 12.4747C16.416 13.0976 16.2988 13.7113 16.0801 14.2934C15.6901 15.2979 14.8959 16.0929 13.8905 16.4829C13.3084 16.7017 12.6939 16.8189 12.0727 16.8314C11.2786 16.8779 11.0183 16.8779 8.98766 16.8779H8.98754C6.95682 16.8779 6.70319 16.8671 5.90238 16.8314C5.27869 16.8114 4.66416 16.6834 4.08538 16.4572C3.07917 16.068 2.28501 15.273 1.895 14.2685C1.67629 13.6855 1.55904 13.0718 1.54657 12.4498C1.5 11.6548 1.5 11.3953 1.5 9.36463C1.5 7.33392 1.51081 7.08029 1.54657 6.27948C1.55821 5.65829 1.67629 5.04375 1.895 4.46248C2.28418 3.4571 3.07917 2.66211 4.08455 2.27293C4.66582 2.05422 5.28036 1.93697 5.90155 1.92367C6.6957 1.87793 6.95599 1.87793 8.9867 1.87793C11.0174 1.87793 11.2711 1.88791 12.071 1.92367C12.693 1.93697 13.3076 2.05422 13.8889 2.27293C14.8942 2.66211 15.6884 3.4571 16.0784 4.46248ZM5.13732 9.36048C5.13732 11.4843 6.85786 13.2049 8.98171 13.2049C11.1039 13.2049 12.8261 11.4843 12.8261 9.36048C12.8261 7.23662 11.1039 5.51609 8.98171 5.51609C6.85786 5.51609 5.13732 7.23662 5.13732 9.36048ZM12.0827 5.37389C12.0827 5.86951 12.4827 6.27033 12.9791 6.27033C13.4739 6.27033 13.8747 5.86951 13.8747 5.37389C13.8747 4.87827 13.4739 4.47744 12.9791 4.47744C12.4827 4.47744 12.0827 4.87827 12.0827 5.37389ZM11.4789 9.36044C11.4789 10.7396 10.3608 11.8577 8.98167 11.8577C7.60248 11.8577 6.48444 10.7396 6.48444 9.36044C6.48444 7.98125 7.60248 6.8632 8.98167 6.8632C10.3608 6.8632 11.4789 7.98125 11.4789 9.36044Z"
    fill="currentColor" />
</svg>