<svg width="18" height="19" viewBox="0 0 18 19" fill="none" xmlns="http://www.w3.org/2000/svg">
  <path fill-rule="evenodd" clip-rule="evenodd"
    d="M14 1.87793C14.663 1.87793 15.2989 2.14132 15.7678 2.61016C16.2366 3.079 16.5 3.71489 16.5 4.37793V14.3779C16.5 15.041 16.2366 15.6769 15.7678 16.1457C15.2989 16.6145 14.663 16.8779 14 16.8779H4C3.33696 16.8779 2.70107 16.6145 2.23223 16.1457C1.76339 15.6769 1.5 15.041 1.5 14.3779V4.37793C1.5 3.71489 1.76339 3.079 2.23223 2.61016C2.70107 2.14132 3.33696 1.87793 4 1.87793H14ZM5.66667 7.71126C5.44565 7.71126 5.23369 7.79906 5.07741 7.95534C4.92113 8.11162 4.83333 8.32358 4.83333 8.5446V12.7113C4.83333 12.9323 4.92113 13.1442 5.07741 13.3005C5.23369 13.4568 5.44565 13.5446 5.66667 13.5446C5.88768 13.5446 6.09964 13.4568 6.25592 13.3005C6.4122 13.1442 6.5 12.9323 6.5 12.7113V8.5446C6.5 8.32358 6.4122 8.11162 6.25592 7.95534C6.09964 7.79906 5.88768 7.71126 5.66667 7.71126ZM8.16667 6.87793C7.94565 6.87793 7.73369 6.96573 7.57741 7.12201C7.42113 7.27829 7.33333 7.49025 7.33333 7.71126V12.7113C7.33333 12.9323 7.42113 13.1442 7.57741 13.3005C7.73369 13.4568 7.94565 13.5446 8.16667 13.5446C8.38768 13.5446 8.59964 13.4568 8.75592 13.3005C8.9122 13.1442 9 12.9323 9 12.7113V9.66126C9.32511 9.30762 9.7205 9.02577 10.1608 8.83376C10.4383 8.71543 10.8558 8.6671 11.1458 8.75876C11.242 8.78317 11.3277 8.83815 11.39 8.91543C11.4333 8.97376 11.5 9.10376 11.5 9.37793V12.7113C11.5 12.9323 11.5878 13.1442 11.7441 13.3005C11.9004 13.4568 12.1123 13.5446 12.3333 13.5446C12.5543 13.5446 12.7663 13.4568 12.9226 13.3005C13.0789 13.1442 13.1667 12.9323 13.1667 12.7113V9.37793C13.1667 8.8196 13.025 8.32293 12.73 7.9246C12.4585 7.56339 12.0786 7.29853 11.6458 7.16876C10.8942 6.93293 10.0617 7.06376 9.50583 7.3021C9.32774 7.37832 9.15437 7.46514 8.98667 7.5621C8.95173 7.37009 8.85052 7.19643 8.70066 7.0714C8.55081 6.94637 8.36183 6.8779 8.16667 6.87793ZM5.66667 5.21126C5.44565 5.21126 5.23369 5.29906 5.07741 5.45534C4.92113 5.61162 4.83333 5.82358 4.83333 6.0446C4.83333 6.26561 4.92113 6.47757 5.07741 6.63385C5.23369 6.79013 5.44565 6.87793 5.66667 6.87793C5.88768 6.87793 6.09964 6.79013 6.25592 6.63385C6.4122 6.47757 6.5 6.26561 6.5 6.0446C6.5 5.82358 6.4122 5.61162 6.25592 5.45534C6.09964 5.29906 5.88768 5.21126 5.66667 5.21126Z"
    fill="currentColor" />
</svg>