<svg width="18" height="18" viewBox="0 0 18 18" fill="none" xmlns="http://www.w3.org/2000/svg">
  <path fill-rule="evenodd" clip-rule="evenodd"
    d="M15.3333 0.666656C15.6023 1.91923 16.5807 2.89768 17.8333 3.16666C16.5807 3.43563 15.6023 4.41408 15.3333 5.66666C15.0643 4.41408 14.0859 3.43563 12.8333 3.16666C14.0859 2.89768 15.0643 1.91923 15.3333 0.666656ZM7.06 0.833326C7.81958 4.37059 10.5827 7.13374 14.12 7.89333C10.5827 8.65291 7.81958 11.4161 7.06 14.9533C6.30042 11.4161 3.53726 8.65291 0 7.89333C3.53726 7.13374 6.30042 4.37059 7.06 0.833326ZM17.8333 14C16.1632 13.6414 14.8586 12.3368 14.5 10.6667C14.1413 12.3368 12.8367 13.6414 11.1666 14C12.8367 14.3586 14.1413 15.6632 14.5 17.3333C14.8586 15.6632 16.1632 14.3586 17.8333 14Z"
    fill="currentColor" />
</svg>