<svg xmlns="http://www.w3.org/2000/svg" width="25" height="24" viewBox="0 0 25 24" fill="none">
  <path fill-rule="evenodd" clip-rule="evenodd"
    d="M4.33331 1.25C3.36681 1.25 2.58331 2.0335 2.58331 3V6C2.58331 6.9665 3.36681 7.75 4.33331 7.75H5.08331V13.25H4.33331C3.36681 13.25 2.58331 14.0335 2.58331 15V18C2.58331 18.9665 3.36681 19.75 4.33331 19.75H7.33331C8.29981 19.75 9.08331 18.9665 9.08331 18V17.25H10.3333C10.7475 17.25 11.0833 16.9142 11.0833 16.5C11.0833 16.0858 10.7475 15.75 10.3333 15.75H9.08331V15C9.08331 14.0335 8.29981 13.25 7.33331 13.25H6.58331V7.75H7.33331C8.29981 7.75 9.08331 6.9665 9.08331 6V5.25H14.5833V6C14.5833 6.9665 15.3668 7.75 16.3333 7.75H17.0833V9C17.0833 9.41421 17.4191 9.75 17.8333 9.75C18.2475 9.75 18.5833 9.41421 18.5833 9V7.75H19.3333C20.2998 7.75 21.0833 6.9665 21.0833 6V3C21.0833 2.0335 20.2998 1.25 19.3333 1.25H16.3333C15.3668 1.25 14.5833 2.0335 14.5833 3V3.75H9.08331V3C9.08331 2.0335 8.29981 1.25 7.33331 1.25H4.33331ZM17.8333 6.25H19.3333C19.4714 6.25 19.5833 6.13807 19.5833 6V3C19.5833 2.86193 19.4714 2.75 19.3333 2.75H16.3333C16.1952 2.75 16.0833 2.86193 16.0833 3V4.5V6C16.0833 6.13807 16.1952 6.25 16.3333 6.25H17.8333ZM7.58331 15V16.5V18C7.58331 18.1381 7.47138 18.25 7.33331 18.25H4.33331C4.19524 18.25 4.08331 18.1381 4.08331 18V15C4.08331 14.8619 4.19524 14.75 4.33331 14.75H5.83331H7.33331C7.47138 14.75 7.58331 14.8619 7.58331 15ZM7.58331 3V4.5V6C7.58331 6.13807 7.47138 6.25 7.33331 6.25H5.83331H4.33331C4.19524 6.25 4.08331 6.13807 4.08331 6V3C4.08331 2.86193 4.19524 2.75 4.33331 2.75H7.33331C7.47138 2.75 7.58331 2.86193 7.58331 3ZM16.3333 17C15.9191 17 15.5833 17.3358 15.5833 17.75C15.5833 18.1642 15.9191 18.5 16.3333 18.5H18.3333C18.7475 18.5 19.0833 18.1642 19.0833 17.75C19.0833 17.3358 18.7475 17 18.3333 17H16.3333ZM15.5833 15.25C15.5833 14.8358 15.9191 14.5 16.3333 14.5H18.3333C18.7475 14.5 19.0833 14.8358 19.0833 15.25C19.0833 15.6642 18.7475 16 18.3333 16H16.3333C15.9191 16 15.5833 15.6642 15.5833 15.25ZM15.3333 11.25C13.8145 11.25 12.5833 12.4812 12.5833 14V19C12.5833 20.5188 13.8145 21.75 15.3333 21.75H19.3333C20.8521 21.75 22.0833 20.5188 22.0833 19V14C22.0833 12.4812 20.8521 11.25 19.3333 11.25H15.3333ZM14.0833 14C14.0833 13.3096 14.643 12.75 15.3333 12.75H19.3333C20.0237 12.75 20.5833 13.3096 20.5833 14V19C20.5833 19.6904 20.0237 20.25 19.3333 20.25H15.3333C14.643 20.25 14.0833 19.6904 14.0833 19V14Z"
    fill="currentColor" />
</svg>