<svg xmlns="http://www.w3.org/2000/svg" width="21" height="20" viewBox="0 0 21 20" fill="none">
  <path
    d="M10.0833 19.4124V16.4124C5.90833 16.1957 2.58333 12.7291 2.58333 8.50407C2.58333 4.1374 6.13333 0.587402 10.5 0.587402C14.8667 0.587402 18.4167 4.1374 18.4167 8.50407C18.4167 12.6291 15.55 16.7791 11.275 18.8374L10.0833 19.4124ZM10.5 2.25407C7.05 2.25407 4.25 5.05407 4.25 8.50407C4.25 11.9541 7.05 14.7541 10.5 14.7541H11.75V16.6707C14.7833 14.7541 16.75 11.6041 16.75 8.50407C16.75 5.05407 13.95 2.25407 10.5 2.25407ZM9.66667 11.8374H11.3333V13.5041H9.66667V11.8374ZM11.3333 10.5874H9.66667C9.66667 7.87907 12.1667 8.0874 12.1667 6.42074C12.1667 5.50407 11.4167 4.75407 10.5 4.75407C9.58333 4.75407 8.83333 5.50407 8.83333 6.42074H7.16667C7.16667 4.57907 8.65833 3.0874 10.5 3.0874C12.3417 3.0874 13.8333 4.57907 13.8333 6.42074C13.8333 8.50407 11.3333 8.7124 11.3333 10.5874Z"
    fill="currentColor" />
</svg>
