<svg xmlns="http://www.w3.org/2000/svg" width="32" height="32" viewBox="0 0 32 32" fill="none">
  <path fill-rule="evenodd" clip-rule="evenodd"
    d="M3.66666 6.66667C3.66666 5.74619 4.41285 5 5.33332 5H13.3333C14.2538 5 15 5.74619 15 6.66667V10.6667C15 11.219 15.4477 11.6667 16 11.6667C16.5523 11.6667 17 11.219 17 10.6667V6.66667C17 4.64162 15.3584 3 13.3333 3H5.33332C3.30828 3 1.66666 4.64162 1.66666 6.66667V25.3333C1.66666 27.3584 3.30828 29 5.33332 29H13.3333C15.3584 29 17 27.3584 17 25.3333V21.3333C17 20.781 16.5523 20.3333 16 20.3333C15.4477 20.3333 15 20.781 15 21.3333V25.3333C15 26.2538 14.2538 27 13.3333 27H5.33332C4.41285 27 3.66666 26.2538 3.66666 25.3333V6.66667ZM5.66666 9.33333C5.66666 8.04467 6.71133 7 7.99999 7H10.6667C11.9553 7 13 8.04467 13 9.33333V12V16V18.6667C13 19.9553 11.9553 21 10.6667 21H7.99999C6.71133 21 5.66666 19.9553 5.66666 18.6667V16V12V9.33333ZM11 9.33333V11H7.66666V9.33333C7.66666 9.14924 7.81589 9 7.99999 9H10.6667C10.8508 9 11 9.14924 11 9.33333ZM11 13H7.66666V15H11V13ZM7.66666 17V18.6667C7.66666 18.8508 7.81589 19 7.99999 19H10.6667C10.8508 19 11 18.8508 11 18.6667V17H7.66666ZM25.6667 9.33333C25.6667 8.04467 26.7113 7 28 7H29.3333C29.8856 7 30.3333 7.44772 30.3333 8C30.3333 8.55228 29.8856 9 29.3333 9H28C27.8159 9 27.6667 9.14924 27.6667 9.33333V11H29.3333C29.8856 11 30.3333 11.4477 30.3333 12C30.3333 12.5523 29.8856 13 29.3333 13H27.6667V15H29.3333C29.8856 15 30.3333 15.4477 30.3333 16C30.3333 16.5523 29.8856 17 29.3333 17H27.6667V18.6667C27.6667 18.8508 27.8159 19 28 19H29.3333C29.8856 19 30.3333 19.4477 30.3333 20C30.3333 20.5523 29.8856 21 29.3333 21H28C26.7113 21 25.6667 19.9553 25.6667 18.6667V16V12V9.33333ZM28.2996 23.2862C28.6901 22.8957 29.3232 22.8957 29.7138 23.2862L29.7204 23.2929C30.111 23.6834 30.111 24.3166 29.7204 24.7071L29.7138 24.7138C29.3232 25.1043 28.6901 25.1043 28.2996 24.7138L28.2929 24.7071C27.9024 24.3166 27.9024 23.6834 28.2929 23.2929L28.2996 23.2862ZM9.71376 23.2862C9.32324 22.8957 8.69007 22.8957 8.29955 23.2862L8.29288 23.2929C7.90236 23.6834 7.90236 24.3166 8.29288 24.7071L8.29955 24.7138C8.69007 25.1043 9.32324 25.1043 9.71376 24.7138L9.72043 24.7071C10.111 24.3166 10.111 23.6834 9.72043 23.2929L9.71376 23.2862ZM15 16C15 15.4477 15.4477 15 16 15H20.2524L19.2929 14.0404C18.9024 13.6499 18.9024 13.0168 19.2929 12.6262C19.6834 12.2357 20.3166 12.2357 20.7071 12.6262L23.3738 15.2929C23.7643 15.6834 23.7643 16.3166 23.3738 16.7071L20.7071 19.3738C20.3166 19.7643 19.6834 19.7643 19.2929 19.3738C18.9024 18.9832 18.9024 18.3501 19.2929 17.9596L20.2524 17H16C15.4477 17 15 16.5523 15 16ZM25.3333 5C24.4128 5 23.6667 5.74619 23.6667 6.66667V9.33333C23.6667 9.88562 23.2189 10.3333 22.6667 10.3333C22.1144 10.3333 21.6667 9.88562 21.6667 9.33333V6.66667C21.6667 4.64162 23.3083 3 25.3333 3H29.3333C29.8856 3 30.3333 3.44772 30.3333 4C30.3333 4.55228 29.8856 5 29.3333 5H25.3333ZM23.6667 22.6667C23.6667 22.1144 23.2189 21.6667 22.6667 21.6667C22.1144 21.6667 21.6667 22.1144 21.6667 22.6667V25.3333C21.6667 27.3584 23.3083 29 25.3333 29H29.3333C29.8856 29 30.3333 28.5523 30.3333 28C30.3333 27.4477 29.8856 27 29.3333 27H25.3333C24.4128 27 23.6667 26.2538 23.6667 25.3333V22.6667Z"
    fill="currentColor" />
</svg>