<svg xmlns="http://www.w3.org/2000/svg" width="32" height="32" viewBox="0 0 32 32" fill="none">
  <path fill-rule="evenodd" clip-rule="evenodd"
    d="M14.3333 3.99996C14.3333 3.81624 14.483 3.66663 14.6667 3.66663H17.3333C17.5171 3.66663 17.6667 3.81624 17.6667 3.99996V5.33329V6.66663C17.6667 6.85034 17.5171 6.99996 17.3333 6.99996H14.6667C14.483 6.99996 14.3333 6.85034 14.3333 6.66663V5.33469L14.3333 5.33329L14.3333 5.3319V3.99996ZM19.6667 3.99996V4.33329H24C26.0256 4.33329 27.6667 5.97434 27.6667 7.99996V12.3333H28C29.2883 12.3333 30.3333 13.3783 30.3333 14.6666V17.3333C30.3333 18.6216 29.2883 19.6666 28 19.6666H27.6667V24C27.6667 26.0256 26.0256 27.6666 24 27.6666H19.6667V28C19.6667 29.2882 18.6216 30.3333 17.3333 30.3333H14.6667C13.3784 30.3333 12.3333 29.2882 12.3333 28V27.6666H8.00001C5.97439 27.6666 4.33334 26.0256 4.33334 24V19.6666H4.00001C2.71172 19.6666 1.66667 18.6216 1.66667 17.3333V14.6666C1.66667 13.3783 2.71172 12.3333 4.00001 12.3333H4.33334V7.99996C4.33334 5.97434 5.97439 4.33329 8.00001 4.33329H12.3333V3.99996C12.3333 2.71167 13.3784 1.66663 14.6667 1.66663H17.3333C18.6216 1.66663 19.6667 2.71167 19.6667 3.99996ZM6.33334 19.6666V24C6.33334 24.921 7.07896 25.6666 8.00001 25.6666H12.3333V25.3333C12.3333 24.045 13.3784 23 14.6667 23H17.3333C18.6216 23 19.6667 24.045 19.6667 25.3333V25.6666H24C24.9211 25.6666 25.6667 24.921 25.6667 24V19.6666H25.3333C24.0451 19.6666 23 18.6216 23 17.3333V14.6666C23 13.3783 24.0451 12.3333 25.3333 12.3333H25.6667V7.99996C25.6667 7.07891 24.9211 6.33329 24 6.33329H19.6667V6.66663C19.6667 7.95491 18.6216 8.99996 17.3333 8.99996H14.6667C13.3784 8.99996 12.3333 7.95491 12.3333 6.66663V6.33329H8.00001C7.07896 6.33329 6.33334 7.07891 6.33334 7.99996V12.3333H6.66667C7.95496 12.3333 9.00001 13.3783 9.00001 14.6666V17.3333C9.00001 18.6216 7.95496 19.6666 6.66667 19.6666H6.33334ZM5.33334 17.6666H4.00001C3.81629 17.6666 3.66667 17.517 3.66667 17.3333V14.6666C3.66667 14.4829 3.81629 14.3333 4.00001 14.3333H5.33194L5.33334 14.3333L5.33473 14.3333H6.66667C6.85039 14.3333 7.00001 14.4829 7.00001 14.6666V17.3333C7.00001 17.517 6.85039 17.6666 6.66667 17.6666H5.33334ZM14.3333 28V26.668L14.3333 26.6666L14.3333 26.6652V25.3333C14.3333 25.1496 14.483 25 14.6667 25H17.3333C17.5171 25 17.6667 25.1496 17.6667 25.3333V26.6666V28C17.6667 28.1837 17.5171 28.3333 17.3333 28.3333H14.6667C14.483 28.3333 14.3333 28.1837 14.3333 28ZM26.6667 17.6666H28C28.1837 17.6666 28.3333 17.517 28.3333 17.3333V14.6666C28.3333 14.4829 28.1837 14.3333 28 14.3333H26.6681L26.6667 14.3333L26.6653 14.3333H25.3333C25.1496 14.3333 25 14.4829 25 14.6666V17.3333C25 17.517 25.1496 17.6666 25.3333 17.6666H26.6667ZM17.2667 11.9999C17.2667 12.6338 16.7546 13.1679 16.1 13.1679C15.4557 13.1679 14.9333 12.6456 14.9333 12.0013C14.9333 11.0529 15.7119 10.8401 16.0855 10.8347C16.7439 10.8252 17.2667 11.3585 17.2667 11.9999ZM16.1 17.1679C16.7546 17.1679 17.2667 16.6338 17.2667 15.9999C17.2667 15.3585 16.7439 14.8252 16.0855 14.8347C15.7119 14.8401 14.9333 15.0529 14.9333 16.0013C14.9333 16.6456 15.4557 17.1679 16.1 17.1679ZM17.2667 19.9999C17.2667 20.6338 16.7546 21.1679 16.1 21.1679C15.4557 21.1679 14.9333 20.6456 14.9333 20.0013C14.9333 19.0529 15.7119 18.8401 16.0855 18.8347C16.7439 18.8252 17.2667 19.3585 17.2667 19.9999ZM19.7734 17.1679C20.4281 17.1679 20.9401 16.6338 20.9401 15.9999C20.9401 15.3585 20.4173 14.8252 19.759 14.8347C19.3854 14.8401 18.6068 15.0529 18.6068 16.0013C18.6068 16.6456 19.1292 17.1679 19.7734 17.1679ZM13.1333 15.9999C13.1333 16.6338 12.6213 17.1679 11.9667 17.1679C11.3224 17.1679 10.8 16.6456 10.8 16.0013C10.8 15.0529 11.5786 14.8401 11.9522 14.8347C12.6106 14.8252 13.1333 15.3585 13.1333 15.9999Z"
    fill="currentColor" />
</svg>