<svg xmlns="http://www.w3.org/2000/svg" width="32" height="32" viewBox="0 0 32 32" fill="none">
  <path fill-rule="evenodd" clip-rule="evenodd"
    d="M17.5 14.5C16.6716 13.6716 15.3284 13.6716 14.5 14.5C13.6715 15.3285 13.6715 16.6716 14.5 17.5C15.3284 18.3285 16.6715 18.3285 17.5 17.5C18.3284 16.6716 18.3284 15.3285 17.5 14.5ZM18.9142 13.0858C17.3047 11.4763 14.6952 11.4763 13.0857 13.0858C11.4763 14.6953 11.4763 17.3048 13.0857 18.9143C14.6952 20.5237 17.3047 20.5237 18.9142 18.9143C20.5237 17.3048 20.5237 14.6953 18.9142 13.0858Z"
    fill="currentColor" />
  <path fill-rule="evenodd" clip-rule="evenodd"
    d="M27.8914 14.7206C27.1848 14.014 26.0392 14.014 25.3327 14.7206C24.6261 15.4272 24.6261 16.5728 25.3327 17.2794C26.0393 17.9859 27.1849 17.9859 27.8914 17.2794C28.598 16.5728 28.598 15.4272 27.8914 14.7206ZM29.3057 13.3064C30.7933 14.794 30.7933 17.2059 29.3057 18.6936C27.818 20.1812 25.4061 20.1812 23.9184 18.6936C22.4308 17.2059 22.4308 14.794 23.9184 13.3064C25.4061 11.8187 27.818 11.8187 29.3057 13.3064Z"
    fill="currentColor" />
  <path fill-rule="evenodd" clip-rule="evenodd"
    d="M6.6674 14.7206C5.96081 14.014 4.8152 14.014 4.10861 14.7206C3.40202 15.4272 3.40203 16.5728 4.10861 17.2794C4.81521 17.9859 5.96081 17.9859 6.6674 17.2794C7.37399 16.5728 7.37399 15.4272 6.6674 14.7206ZM8.08161 13.3064C9.56925 14.794 9.56925 17.2059 8.08162 18.6936C6.59398 20.1812 4.18205 20.1812 2.6944 18.6936C1.20676 17.2059 1.20677 14.794 2.6944 13.3064C4.18204 11.8187 6.59397 11.8187 8.08161 13.3064Z"
    fill="currentColor" />
  <path fill-rule="evenodd" clip-rule="evenodd"
    d="M22.5848 5.52994C21.8782 4.82335 20.7326 4.82335 20.026 5.52994C19.3194 6.23654 19.3194 7.38214 20.026 8.08873C20.7326 8.79532 21.8782 8.79532 22.5848 8.08873C23.2914 7.38213 23.2914 6.23653 22.5848 5.52994ZM23.999 4.11573C25.4866 5.60337 25.4866 8.0153 23.999 9.50294C22.5114 10.9906 20.0994 10.9906 18.6118 9.50294C17.1241 8.0153 17.1241 5.60337 18.6118 4.11573C20.0994 2.62809 22.5113 2.62809 23.999 4.11573Z"
    fill="currentColor" />
  <path fill-rule="evenodd" clip-rule="evenodd"
    d="M11.9741 23.9112C11.2675 23.2046 10.1219 23.2046 9.41528 23.9112C8.70869 24.6178 8.70869 25.7634 9.41528 26.47C10.1219 27.1766 11.2675 27.1766 11.9741 26.47C12.6807 25.7634 12.6807 24.6178 11.9741 23.9112ZM13.3883 22.497C14.8759 23.9847 14.8759 26.3966 13.3883 27.8842C11.9006 29.3719 9.48871 29.3719 8.00107 27.8842C6.51343 26.3966 6.51343 23.9847 8.00107 22.497C9.48871 21.0094 11.9006 21.0094 13.3883 22.497Z"
    fill="currentColor" />
  <path fill-rule="evenodd" clip-rule="evenodd"
    d="M11.9741 5.52994C11.2675 4.82335 10.1219 4.82335 9.41528 5.52994C8.70869 6.23654 8.70869 7.38214 9.41528 8.08873C10.1219 8.79532 11.2675 8.79532 11.9741 8.08873C12.6807 7.38213 12.6807 6.23653 11.9741 5.52994ZM13.3883 4.11573C14.8759 5.60337 14.8759 8.0153 13.3883 9.50294C11.9006 10.9906 9.48871 10.9906 8.00107 9.50294C6.51343 8.0153 6.51343 5.60337 8.00107 4.11573C9.48871 2.62809 11.9006 2.62809 13.3883 4.11573Z"
    fill="currentColor" />
  <path fill-rule="evenodd" clip-rule="evenodd"
    d="M22.5848 23.9112C21.8782 23.2046 20.7326 23.2046 20.026 23.9112C19.3194 24.6178 19.3194 25.7634 20.026 26.47C20.7326 27.1766 21.8782 27.1766 22.5848 26.47C23.2914 25.7634 23.2914 24.6178 22.5848 23.9112ZM23.999 22.497C25.4866 23.9847 25.4866 26.3966 23.999 27.8842C22.5114 29.3719 20.0994 29.3719 18.6118 27.8842C17.1241 26.3966 17.1241 23.9847 18.6118 22.497C20.0994 21.0094 22.5113 21.0094 23.999 22.497Z"
    fill="currentColor" />
  <path fill-rule="evenodd" clip-rule="evenodd"
    d="M14.9398 17.8272C15.4182 18.1032 15.5822 18.7148 15.3062 19.1931L12.9595 23.2598C12.6835 23.7382 12.0719 23.9022 11.5935 23.6261C11.1152 23.3501 10.9512 22.7385 11.2272 22.2602L13.5739 18.1935C13.8499 17.7152 14.4615 17.5512 14.9398 17.8272Z"
    fill="currentColor" />
  <path fill-rule="evenodd" clip-rule="evenodd"
    d="M11.5935 8.37386C12.0719 8.09782 12.6835 8.26184 12.9595 8.74019L15.3062 12.8069C15.5822 13.2852 15.4182 13.8968 14.9398 14.1728C14.4615 14.4488 13.8499 14.2848 13.5739 13.8065L11.2272 9.7398C10.9512 9.26144 11.1152 8.64989 11.5935 8.37386Z"
    fill="currentColor" />
  <path fill-rule="evenodd" clip-rule="evenodd"
    d="M18.12 16C18.12 15.4477 18.5677 15 19.12 15H23.8C24.3523 15 24.8 15.4477 24.8 16C24.8 16.5523 24.3523 17 23.8 17H19.12C18.5677 17 18.12 16.5523 18.12 16Z"
    fill="currentColor" />
</svg>